<mxfile host="65bd71144e">
    <diagram id="xwCBEZjk-9v-W8BtabiM" name="Page-1">
        <mxGraphModel dx="2008" dy="645" grid="1" gridSize="10" guides="1" tooltips="1" connect="1" arrows="1" fold="1" page="1" pageScale="1" pageWidth="850" pageHeight="1100" math="0" shadow="0">
            <root>
                <mxCell id="0"/>
                <mxCell id="1" parent="0"/>
                <mxCell id="2" value="base intents" style="whiteSpace=wrap;html=1;aspect=fixed;" vertex="1" parent="1">
                    <mxGeometry x="-110" y="240" width="130" height="130" as="geometry"/>
                </mxCell>
                <mxCell id="3" value="" style="endArrow=classic;html=1;exitX=0.991;exitY=0.533;exitDx=0;exitDy=0;exitPerimeter=0;entryX=0;entryY=0.5;entryDx=0;entryDy=0;" edge="1" parent="1" source="2" target="4">
                    <mxGeometry width="50" height="50" relative="1" as="geometry">
                        <mxPoint x="160" y="470" as="sourcePoint"/>
                        <mxPoint x="200" y="310" as="targetPoint"/>
                    </mxGeometry>
                </mxCell>
                <mxCell id="4" value="enteties" style="whiteSpace=wrap;html=1;aspect=fixed;" vertex="1" parent="1">
                    <mxGeometry x="220" y="250" width="80" height="80" as="geometry"/>
                </mxCell>
                <mxCell id="5" value="" style="curved=1;endArrow=classic;html=1;exitX=0.5;exitY=1;exitDx=0;exitDy=0;entryX=0.5;entryY=1;entryDx=0;entryDy=0;" edge="1" parent="1" source="4" target="2">
                    <mxGeometry width="50" height="50" relative="1" as="geometry">
                        <mxPoint x="340" y="360" as="sourcePoint"/>
                        <mxPoint x="390" y="310" as="targetPoint"/>
                        <Array as="points">
                            <mxPoint x="320" y="320"/>
                            <mxPoint x="390" y="360"/>
                            <mxPoint x="380" y="450"/>
                            <mxPoint x="340" y="420"/>
                            <mxPoint x="340" y="310"/>
                            <mxPoint x="310" y="480"/>
                            <mxPoint x="280" y="450"/>
                            <mxPoint x="240" y="400"/>
                            <mxPoint x="170" y="490"/>
                        </Array>
                    </mxGeometry>
                </mxCell>
            </root>
        </mxGraphModel>
    </diagram>
</mxfile>